. 
  
http://www.torrenting.com/        :     Greatest Movie Tracker on The Net!!!
 
http://www.Torrenting.com          :     Once & For all ;)


               www . Torrenting . Com 

(((((((((((((= Enjoy No RAR releases =))))))))))))))))))))


...................................NFO:....................................

.[img]http://img858.imageshack.us/img858/800/tumblrld789i6ae81qed68l.jpg[/img]

[color=blue][size=5][b]Red.Eagle.2010.R3.DVDRip.HC-Subs.XVID.AC3.HQ.Hive-CM8[/b][/size][/color]


[b]Thx Hive

CM8 Doing It Right The First Time :D


After the last Thai Blockbuster "Endhiran-The Robot" Movie here comes the 
next Thai 5-Star Blockbuster Superhero Movie "Red Eagle" aka "Insee Dang"
Yes language is thai with hardcoded English Subs with lots of fighting scenes.

Source is the R3 DVD-9 with retail Subs

Video: 720x304 @bitrate 1800 2pass
Audio: Thai AC3 5.1 @448
Subs: yes english hardcoded
Sample: yes included[/b]



[url]http://www.imdb.com/title/tt1743711/[/url]


General
Complete name                    : Red.Eagle.2010.R3.DVDRip.HC-Subs.XVID.AC3.HQ.Hive-CM8.avi
Format                           : AVI
Format/Info                      : Audio Video Interleave
Format profile                   : OpenDML
File size                        : 2.03 GiB
Duration                         : 2h 9mn
Overall bit rate                 : 2 253 Kbps
Writing application              : AVI-Mux GUI 1.17.7, Aug  8 2006  20:59:17

Video
ID                               : 0
Format                           : MPEG-4 Visual
Format profile                   : Advanced Simple@L5
Format settings, BVOP            : Yes
Format settings, QPel            : Yes
Format settings, GMC             : No warppoints
Format settings, Matrix          : Default (H.263)
Muxing mode                      : Packed bitstream
Codec ID                         : XVID
Codec ID/Hint                    : XviD
Duration                         : 2h 9mn
Bit rate                         : 1 800 Kbps
Width                            : 720 pixels
Height                           : 304 pixels
Display aspect ratio             : 2.35:1
Frame rate                       : 24.000 fps
Color space                      : YUV
Chroma subsampling               : 4:2:0
Bit depth                        : 8 bits
Scan type                        : Progressive
Bits/(Pixel*Frame)               : 0.343
Stream size                      : 1.62 GiB (80%)
Writing library                  : XviD 1.2.1 (UTC 2008-12-04)

Audio
ID                               : 1
Format                           : AC-3
Format/Info                      : Audio Coding 3
Mode extension                   : CM (complete main)
Codec ID                         : 2000
Duration                         : 2h 9mn
Bit rate mode                    : Constant
Bit rate                         : 448 Kbps
Channel(s)                       : 6 channels
Channel positions                : Front: L C R, Side: L R, LFE
Sampling rate                    : 48.0 KHz
Bit depth                        : 16 bits
Stream size                      : 414 MiB (20%)
Alignment                        : Aligned on interleaves
Interleave, duration             : 64 ms (1.54 video frames)
Interleave, preload duration     : 192 ms


Ananda Everingham ... Rome Rittikrai/Red Eagle
Yarinda Bunnak  ...  Vasana Tienpradab
Wannasingh Prasertkul ...  Detective Chart Wuttikrai
Pornwut Sarain ...   Prime Minister Direk
Black Devil


Year 2016, Bangkok is a rotten capital infested with chaos and criminals. 
Widespread corruption by politicians has dipped the moral compass to a new low.
Amidst the mood of despair, a hero emerges. He goes after filthy politicians and 
vile criminals, handing out his own brand of justice when the law fails to fuction. 
No one knows his true identity.



[img]http://img96.imageshack.us/img96/9324/27222299.png[/img]
[img]http://img593.imageshack.us/img593/1345/rere.png[/img]
[img]http://img705.imageshack.us/img705/8321/rerereg.png[/img]
[img]http://img806.imageshack.us/img806/3152/rerererererererere.png[/img]
[img]http://img135.imageshack.us/img135/5463/rererere.png[/img]
[img]http://img864.imageshack.us/img864/5989/rerererere.png[/img]
[img]http://img251.imageshack.us/img251/3254/rererererere.png[/img]
[img]http://img852.imageshack.us/img852/6195/rerererererere.png[/img]
[img]http://img814.imageshack.us/img814/1946/rererererererere.png[/img]






Greetz

iNK,LUSi,,MAGNET,THC,LEGi0N,T0XiC,IMAGiNE,ViSiON,WBZ,FLAWL3SS,NOVA
Vik,Rapeseed,D2U,SAFC,goldadvance,MEMORY100,KaN1vE,Unevano,Pinnz,Wayne,Mr Hive
and all P2P groups 
Great Work Guys :D

CM8@hushmail.com